<svg width="181" height="61" viewBox="0 0 181 61" fill="none" xmlns="http://www.w3.org/2000/svg">
<rect width="181" height="60" transform="translate(0 0.821289)" fill="black"/>
<g clip-path="url(#clip0_3024_987)">
<path d="M40.9281 12.8213C41.0119 12.8213 41.0956 12.8213 41.1842 12.8213C41.3897 15.3601 40.4206 17.2571 39.2429 18.6308C38.0873 19.995 36.5049 21.3182 33.9456 21.1174C33.7749 18.615 34.7455 16.8587 35.9216 15.4881C37.0124 14.2108 39.0121 13.0742 40.9281 12.8213Z" fill="white"/>
<path d="M48.6758 39.2464C48.6758 39.2716 48.6758 39.2938 48.6758 39.3175C47.9565 41.4959 46.9306 43.3628 45.6786 45.0954C44.5356 46.6683 43.135 48.785 40.6342 48.785C38.4732 48.785 37.0378 47.3955 34.8231 47.3575C32.4803 47.3196 31.1919 48.5194 29.0499 48.8214C28.8049 48.8214 28.5599 48.8214 28.3196 48.8214C26.7467 48.5937 25.4773 47.3481 24.5525 46.2257C21.8256 42.9091 19.7183 38.6251 19.3263 33.1428C19.3263 32.6053 19.3263 32.0694 19.3263 31.532C19.4923 27.6084 21.3987 24.4183 23.9328 22.8722C25.2702 22.0502 27.1087 21.3499 29.1558 21.6629C30.0332 21.7988 30.9295 22.0992 31.7152 22.3964C32.4597 22.6825 33.3908 23.19 34.2729 23.1631C34.8705 23.1457 35.4649 22.8343 36.0672 22.6146C37.8314 21.9775 39.5608 21.2471 41.8403 21.5902C44.5799 22.0044 46.5243 23.2216 47.7257 25.0996C45.4082 26.5745 43.5761 28.7971 43.8891 32.5927C44.1673 36.0405 46.1718 38.0576 48.6758 39.2464Z" fill="white"/>
</g>
<path d="M62.4932 24.8693V23.7893H64.6772C65.2052 23.7893 65.6732 23.7053 66.0812 23.5373C66.4972 23.3613 66.8492 23.1213 67.1372 22.8173C67.4332 22.5133 67.6572 22.1573 67.8092 21.7493C67.9612 21.3413 68.0372 20.9013 68.0372 20.4293C68.0372 19.9333 67.9612 19.4853 67.8092 19.0853C67.6572 18.6773 67.4332 18.3253 67.1372 18.0293C66.8492 17.7253 66.4972 17.4933 66.0812 17.3333C65.6732 17.1733 65.2052 17.0933 64.6772 17.0933H62.4932V16.0133H64.5572C65.3492 16.0133 66.0372 16.1373 66.6212 16.3853C67.2052 16.6253 67.6892 16.9533 68.0732 17.3693C68.4652 17.7773 68.7572 18.2373 68.9492 18.7493C69.1412 19.2533 69.2372 19.7693 69.2372 20.2973V20.5613C69.2372 21.0733 69.1412 21.5853 68.9492 22.0973C68.7572 22.6093 68.4652 23.0733 68.0732 23.4893C67.6892 23.9053 67.2052 24.2413 66.6212 24.4973C66.0372 24.7453 65.3492 24.8693 64.5572 24.8693H62.4932ZM61.5572 24.8693V16.0133H62.7332V24.8693H61.5572ZM73.8333 25.0373C73.2733 25.0373 72.7813 24.9413 72.3573 24.7493C71.9333 24.5573 71.5733 24.3053 71.2773 23.9933C70.9893 23.6733 70.7693 23.3173 70.6173 22.9253C70.4733 22.5333 70.4013 22.1333 70.4013 21.7253V21.5093C70.4013 21.1013 70.4773 20.7013 70.6293 20.3093C70.7813 19.9093 71.0053 19.5533 71.3013 19.2413C71.5973 18.9213 71.9573 18.6693 72.3813 18.4853C72.8053 18.2933 73.2893 18.1973 73.8333 18.1973C74.3773 18.1973 74.8613 18.2933 75.2853 18.4853C75.7093 18.6693 76.0693 18.9213 76.3653 19.2413C76.6613 19.5533 76.8853 19.9093 77.0373 20.3093C77.1893 20.7013 77.2653 21.1013 77.2653 21.5093V21.7253C77.2653 22.1333 77.1893 22.5333 77.0373 22.9253C76.8933 23.3173 76.6733 23.6733 76.3773 23.9933C76.0893 24.3053 75.7333 24.5573 75.3093 24.7493C74.8853 24.9413 74.3933 25.0373 73.8333 25.0373ZM73.8333 24.0053C74.3133 24.0053 74.7213 23.9013 75.0573 23.6933C75.4013 23.4773 75.6613 23.1893 75.8373 22.8293C76.0213 22.4693 76.1133 22.0653 76.1133 21.6173C76.1133 21.1613 76.0213 20.7533 75.8373 20.3933C75.6533 20.0333 75.3893 19.7493 75.0453 19.5413C74.7093 19.3333 74.3053 19.2293 73.8333 19.2293C73.3693 19.2293 72.9653 19.3333 72.6213 19.5413C72.2773 19.7493 72.0133 20.0333 71.8293 20.3933C71.6453 20.7533 71.5533 21.1613 71.5533 21.6173C71.5533 22.0653 71.6413 22.4693 71.8173 22.8293C72.0013 23.1893 72.2613 23.4773 72.5973 23.6933C72.9413 23.9013 73.3533 24.0053 73.8333 24.0053ZM80.7455 24.8213L82.0415 18.6293H83.6015L85.1135 24.8213H84.1295L82.6175 18.6533H83.0015L81.6935 24.8213H80.7455ZM80.1575 24.8213V23.9093H81.4895V24.8213H80.1575ZM79.8935 24.8213L78.0815 18.4133H79.1855L80.9495 24.8213H79.8935ZM84.3695 24.8213V23.9093H85.7015V24.8213H84.3695ZM84.9095 24.8213L86.4455 18.4133H87.4895L85.9175 24.8213H84.9095ZM89.0454 24.8213V18.4133H89.9574V21.1613H89.8134C89.8134 20.5293 89.8974 19.9973 90.0654 19.5653C90.2414 19.1253 90.5054 18.7933 90.8574 18.5693C91.2094 18.3373 91.6534 18.2213 92.1894 18.2213H92.2374C93.0454 18.2213 93.6414 18.4733 94.0254 18.9773C94.4174 19.4813 94.6134 20.2093 94.6134 21.1613V24.8213H93.4614V20.9213C93.4614 20.4253 93.3214 20.0293 93.0414 19.7333C92.7614 19.4293 92.3774 19.2773 91.8894 19.2773C91.3854 19.2773 90.9774 19.4333 90.6654 19.7453C90.3534 20.0573 90.1974 20.4733 90.1974 20.9933V24.8213H89.0454ZM96.7932 24.8213V16.0613H97.9452V24.8213H96.7932ZM95.9052 16.9733V16.0613H97.9452V16.9733H95.9052ZM103.107 25.0373C102.547 25.0373 102.055 24.9413 101.631 24.7493C101.207 24.5573 100.847 24.3053 100.551 23.9933C100.263 23.6733 100.043 23.3173 99.8908 22.9253C99.7468 22.5333 99.6748 22.1333 99.6748 21.7253V21.5093C99.6748 21.1013 99.7508 20.7013 99.9028 20.3093C100.055 19.9093 100.279 19.5533 100.575 19.2413C100.871 18.9213 101.231 18.6693 101.655 18.4853C102.079 18.2933 102.563 18.1973 103.107 18.1973C103.651 18.1973 104.135 18.2933 104.559 18.4853C104.983 18.6693 105.343 18.9213 105.639 19.2413C105.935 19.5533 106.159 19.9093 106.311 20.3093C106.463 20.7013 106.539 21.1013 106.539 21.5093V21.7253C106.539 22.1333 106.463 22.5333 106.311 22.9253C106.167 23.3173 105.947 23.6733 105.651 23.9933C105.363 24.3053 105.007 24.5573 104.583 24.7493C104.159 24.9413 103.667 25.0373 103.107 25.0373ZM103.107 24.0053C103.587 24.0053 103.995 23.9013 104.331 23.6933C104.675 23.4773 104.935 23.1893 105.111 22.8293C105.295 22.4693 105.387 22.0653 105.387 21.6173C105.387 21.1613 105.295 20.7533 105.111 20.3933C104.927 20.0333 104.663 19.7493 104.319 19.5413C103.983 19.3333 103.579 19.2293 103.107 19.2293C102.643 19.2293 102.239 19.3333 101.895 19.5413C101.551 19.7493 101.287 20.0333 101.103 20.3933C100.919 20.7533 100.827 21.1613 100.827 21.6173C100.827 22.0653 100.915 22.4693 101.091 22.8293C101.275 23.1893 101.535 23.4773 101.871 23.6933C102.215 23.9013 102.627 24.0053 103.107 24.0053ZM112.14 24.8213V22.9013H111.948V20.6813C111.948 20.2413 111.832 19.9093 111.6 19.6853C111.376 19.4613 111.044 19.3493 110.604 19.3493C110.356 19.3493 110.1 19.3533 109.836 19.3613C109.572 19.3693 109.32 19.3773 109.08 19.3853C108.84 19.3933 108.632 19.4053 108.456 19.4213V18.4133C108.632 18.3973 108.816 18.3853 109.008 18.3773C109.208 18.3613 109.412 18.3533 109.62 18.3533C109.828 18.3453 110.028 18.3413 110.22 18.3413C110.876 18.3413 111.412 18.4213 111.828 18.5813C112.244 18.7333 112.552 18.9853 112.752 19.3373C112.952 19.6893 113.052 20.1653 113.052 20.7653V24.8213H112.14ZM110.04 24.9893C109.56 24.9893 109.144 24.9093 108.792 24.7493C108.448 24.5813 108.18 24.3413 107.988 24.0293C107.804 23.7173 107.712 23.3413 107.712 22.9013C107.712 22.4453 107.812 22.0653 108.012 21.7613C108.22 21.4573 108.52 21.2293 108.912 21.0773C109.304 20.9173 109.776 20.8373 110.328 20.8373H112.068V21.7013H110.28C109.816 21.7013 109.46 21.8133 109.212 22.0373C108.964 22.2613 108.84 22.5493 108.84 22.9013C108.84 23.2533 108.964 23.5373 109.212 23.7533C109.46 23.9693 109.816 24.0773 110.28 24.0773C110.552 24.0773 110.812 24.0293 111.06 23.9333C111.308 23.8293 111.512 23.6613 111.672 23.4293C111.84 23.1893 111.932 22.8613 111.948 22.4453L112.26 22.9013C112.22 23.3573 112.108 23.7413 111.924 24.0533C111.748 24.3573 111.5 24.5893 111.18 24.7493C110.868 24.9093 110.488 24.9893 110.04 24.9893ZM117.843 25.0373C117.387 25.0373 116.967 24.9533 116.583 24.7853C116.199 24.6173 115.863 24.3813 115.575 24.0773C115.295 23.7733 115.075 23.4213 114.915 23.0213C114.763 22.6213 114.687 22.1893 114.687 21.7253V21.5093C114.687 21.0533 114.763 20.6253 114.915 20.2253C115.067 19.8253 115.279 19.4733 115.551 19.1693C115.831 18.8653 116.159 18.6293 116.535 18.4613C116.919 18.2853 117.343 18.1973 117.807 18.1973C118.295 18.1973 118.739 18.3013 119.139 18.5093C119.539 18.7093 119.867 19.0253 120.122 19.4573C120.378 19.8893 120.523 20.4493 120.555 21.1373L120.075 20.3693V16.0613H121.227V24.8213H120.315V21.9773H120.651C120.619 22.7053 120.467 23.2973 120.195 23.7533C119.923 24.2013 119.579 24.5293 119.163 24.7373C118.755 24.9373 118.315 25.0373 117.843 25.0373ZM117.999 24.0293C118.391 24.0293 118.747 23.9413 119.067 23.7653C119.387 23.5893 119.643 23.3373 119.835 23.0093C120.027 22.6733 120.122 22.2813 120.122 21.8333V21.2813C120.122 20.8413 120.023 20.4693 119.823 20.1653C119.631 19.8533 119.371 19.6173 119.043 19.4573C118.723 19.2893 118.371 19.2053 117.987 19.2053C117.563 19.2053 117.187 19.3053 116.859 19.5053C116.539 19.7053 116.287 19.9853 116.103 20.3453C115.927 20.7053 115.839 21.1293 115.839 21.6173C115.839 22.1053 115.931 22.5333 116.115 22.9013C116.299 23.2613 116.555 23.5413 116.883 23.7413C117.211 23.9333 117.583 24.0293 117.999 24.0293ZM129.122 25.0373C128.562 25.0373 128.07 24.9413 127.646 24.7493C127.222 24.5573 126.862 24.3053 126.566 23.9933C126.278 23.6733 126.058 23.3173 125.906 22.9253C125.762 22.5333 125.69 22.1333 125.69 21.7253V21.5093C125.69 21.1013 125.766 20.7013 125.918 20.3093C126.07 19.9093 126.294 19.5533 126.59 19.2413C126.886 18.9213 127.246 18.6693 127.67 18.4853C128.094 18.2933 128.578 18.1973 129.122 18.1973C129.666 18.1973 130.15 18.2933 130.574 18.4853C130.998 18.6693 131.358 18.9213 131.654 19.2413C131.95 19.5533 132.174 19.9093 132.326 20.3093C132.478 20.7013 132.554 21.1013 132.554 21.5093V21.7253C132.554 22.1333 132.478 22.5333 132.326 22.9253C132.182 23.3173 131.962 23.6733 131.666 23.9933C131.378 24.3053 131.022 24.5573 130.598 24.7493C130.174 24.9413 129.682 25.0373 129.122 25.0373ZM129.122 24.0053C129.602 24.0053 130.01 23.9013 130.346 23.6933C130.69 23.4773 130.95 23.1893 131.126 22.8293C131.31 22.4693 131.402 22.0653 131.402 21.6173C131.402 21.1613 131.31 20.7533 131.126 20.3933C130.942 20.0333 130.678 19.7493 130.334 19.5413C129.998 19.3333 129.594 19.2293 129.122 19.2293C128.658 19.2293 128.254 19.3333 127.91 19.5413C127.566 19.7493 127.302 20.0333 127.118 20.3933C126.934 20.7533 126.842 21.1613 126.842 21.6173C126.842 22.0653 126.93 22.4693 127.106 22.8293C127.29 23.1893 127.55 23.4773 127.886 23.6933C128.23 23.9013 128.642 24.0053 129.122 24.0053ZM134.28 24.8213V18.4133H135.192V21.1613H135.048C135.048 20.5293 135.132 19.9973 135.3 19.5653C135.476 19.1253 135.74 18.7933 136.092 18.5693C136.444 18.3373 136.888 18.2213 137.424 18.2213H137.472C138.28 18.2213 138.876 18.4733 139.26 18.9773C139.652 19.4813 139.848 20.2093 139.848 21.1613V24.8213H138.696V20.9213C138.696 20.4253 138.556 20.0293 138.276 19.7333C137.996 19.4293 137.612 19.2773 137.124 19.2773C136.62 19.2773 136.212 19.4333 135.9 19.7453C135.588 20.0573 135.432 20.4733 135.432 20.9933V24.8213H134.28ZM147.182 24.8933C146.702 24.8933 146.286 24.8253 145.934 24.6893C145.59 24.5533 145.322 24.3213 145.13 23.9933C144.946 23.6573 144.854 23.2053 144.854 22.6373V16.4693H145.958V22.7813C145.958 23.1253 146.05 23.3933 146.234 23.5853C146.426 23.7693 146.694 23.8613 147.038 23.8613H148.166V24.8933H147.182ZM143.75 19.2773V18.4133H148.166V19.2773H143.75ZM149.795 24.8213V16.0613H150.947V21.2933H150.659C150.659 20.6613 150.739 20.1173 150.899 19.6613C151.067 19.1973 151.323 18.8413 151.667 18.5933C152.011 18.3453 152.451 18.2213 152.987 18.2213H153.035C153.803 18.2213 154.383 18.4773 154.775 18.9893C155.167 19.4933 155.363 20.2173 155.363 21.1613V24.8213H154.211V20.9213C154.211 20.4013 154.063 19.9973 153.767 19.7093C153.479 19.4213 153.103 19.2773 152.639 19.2773C152.127 19.2773 151.715 19.4493 151.403 19.7933C151.099 20.1293 150.947 20.5733 150.947 21.1253V24.8213H149.795ZM160.195 25.0373C159.635 25.0373 159.151 24.9413 158.743 24.7493C158.335 24.5573 158.003 24.3053 157.747 23.9933C157.491 23.6733 157.299 23.3173 157.171 22.9253C157.051 22.5333 156.991 22.1333 156.991 21.7253V21.5093C156.991 21.0933 157.051 20.6893 157.171 20.2973C157.299 19.9053 157.491 19.5533 157.747 19.2413C158.003 18.9213 158.327 18.6693 158.719 18.4853C159.119 18.2933 159.587 18.1973 160.123 18.1973C160.819 18.1973 161.391 18.3493 161.839 18.6533C162.295 18.9493 162.631 19.3333 162.847 19.8053C163.071 20.2773 163.183 20.7813 163.183 21.3173V21.8333H157.495V20.9693H162.343L162.079 21.4373C162.079 20.9813 162.007 20.5893 161.863 20.2613C161.719 19.9253 161.503 19.6653 161.215 19.4813C160.927 19.2973 160.563 19.2053 160.123 19.2053C159.667 19.2053 159.287 19.3093 158.983 19.5173C158.687 19.7253 158.463 20.0093 158.311 20.3693C158.167 20.7293 158.095 21.1453 158.095 21.6173C158.095 22.0733 158.167 22.4853 158.311 22.8533C158.463 23.2133 158.695 23.5013 159.007 23.7173C159.319 23.9253 159.715 24.0293 160.195 24.0293C160.699 24.0293 161.107 23.9173 161.419 23.6933C161.739 23.4693 161.931 23.2093 161.995 22.9133H163.075C162.987 23.3533 162.811 23.7333 162.547 24.0533C162.283 24.3733 161.951 24.6173 161.551 24.7853C161.151 24.9533 160.699 25.0373 160.195 25.0373Z" fill="white"/>
<path d="M60.8483 45.8213L65.8283 31.2213H70.4683L75.5883 45.8213H72.6683L68.3283 33.1613L69.3483 33.6013H66.8483L67.8883 33.1613L63.6883 45.8213H60.8483ZM64.3283 41.9413L65.2283 39.5413H71.1483L72.0283 41.9413H64.3283ZM77.537 49.8213V34.9613H79.737V39.6413L79.397 39.6213C79.4504 38.5146 79.677 37.588 80.077 36.8413C80.4904 36.0946 81.037 35.5413 81.717 35.1813C82.397 34.808 83.157 34.6213 83.997 34.6213C84.7704 34.6213 85.4637 34.7613 86.077 35.0413C86.7037 35.3213 87.237 35.7146 87.677 36.2213C88.1304 36.728 88.477 37.3213 88.717 38.0013C88.957 38.668 89.077 39.388 89.077 40.1613V40.5813C89.077 41.368 88.957 42.1013 88.717 42.7813C88.4904 43.448 88.1504 44.0413 87.697 44.5613C87.257 45.068 86.7237 45.468 86.097 45.7613C85.4704 46.0413 84.7704 46.1813 83.997 46.1813C83.1837 46.1813 82.437 46.0146 81.757 45.6813C81.0904 45.3346 80.5504 44.808 80.137 44.1013C79.7237 43.3813 79.4904 42.4546 79.437 41.3213L80.317 42.6613V49.8213H77.537ZM83.297 43.8413C83.897 43.8413 84.417 43.6946 84.857 43.4013C85.3104 43.108 85.6637 42.7013 85.917 42.1813C86.1704 41.648 86.297 41.048 86.297 40.3813C86.297 39.688 86.1704 39.088 85.917 38.5813C85.6637 38.0746 85.3104 37.6813 84.857 37.4013C84.417 37.108 83.897 36.9613 83.297 36.9613C82.7504 36.9613 82.2437 37.0813 81.777 37.3213C81.3237 37.5613 80.9504 37.9146 80.657 38.3813C80.377 38.848 80.237 39.408 80.237 40.0613V40.8613C80.237 41.488 80.3837 42.0213 80.677 42.4613C80.9704 42.9013 81.3504 43.2413 81.817 43.4813C82.2837 43.7213 82.777 43.8413 83.297 43.8413ZM91.5214 49.8213V34.9613H93.7214V39.6413L93.3814 39.6213C93.4347 38.5146 93.6614 37.588 94.0614 36.8413C94.4747 36.0946 95.0214 35.5413 95.7014 35.1813C96.3814 34.808 97.1414 34.6213 97.9814 34.6213C98.7547 34.6213 99.4481 34.7613 100.061 35.0413C100.688 35.3213 101.221 35.7146 101.661 36.2213C102.115 36.728 102.461 37.3213 102.701 38.0013C102.941 38.668 103.061 39.388 103.061 40.1613V40.5813C103.061 41.368 102.941 42.1013 102.701 42.7813C102.475 43.448 102.135 44.0413 101.681 44.5613C101.241 45.068 100.708 45.468 100.081 45.7613C99.4547 46.0413 98.7547 46.1813 97.9814 46.1813C97.1681 46.1813 96.4214 46.0146 95.7414 45.6813C95.0747 45.3346 94.5347 44.808 94.1214 44.1013C93.7081 43.3813 93.4747 42.4546 93.4214 41.3213L94.3014 42.6613V49.8213H91.5214ZM97.2814 43.8413C97.8814 43.8413 98.4014 43.6946 98.8414 43.4013C99.2947 43.108 99.6481 42.7013 99.9014 42.1813C100.155 41.648 100.281 41.048 100.281 40.3813C100.281 39.688 100.155 39.088 99.9014 38.5813C99.6481 38.0746 99.2947 37.6813 98.8414 37.4013C98.4014 37.108 97.8814 36.9613 97.2814 36.9613C96.7347 36.9613 96.2281 37.0813 95.7614 37.3213C95.3081 37.5613 94.9347 37.9146 94.6414 38.3813C94.3614 38.848 94.2214 39.408 94.2214 40.0613V40.8613C94.2214 41.488 94.3681 42.0213 94.6614 42.4613C94.9547 42.9013 95.3347 43.2413 95.8014 43.4813C96.2681 43.7213 96.7614 43.8413 97.2814 43.8413ZM115.022 46.2013C113.729 46.2013 112.636 45.9946 111.742 45.5813C110.862 45.168 110.189 44.6013 109.722 43.8813C109.256 43.148 109.022 42.3213 109.022 41.4013H111.802C111.802 41.788 111.909 42.168 112.122 42.5413C112.336 42.9013 112.676 43.1946 113.142 43.4213C113.622 43.648 114.249 43.7613 115.022 43.7613C115.716 43.7613 116.296 43.6613 116.762 43.4613C117.229 43.2613 117.576 43.0013 117.802 42.6813C118.029 42.348 118.142 41.9746 118.142 41.5613C118.142 41.0413 117.922 40.628 117.482 40.3213C117.042 40.0013 116.362 39.8013 115.442 39.7213L114.162 39.6213C112.762 39.5013 111.642 39.068 110.802 38.3213C109.976 37.5613 109.562 36.5613 109.562 35.3213C109.562 34.388 109.782 33.588 110.222 32.9213C110.662 32.2413 111.276 31.7213 112.062 31.3613C112.862 30.988 113.796 30.8013 114.862 30.8013C115.969 30.8013 116.922 30.9946 117.722 31.3813C118.522 31.768 119.142 32.3146 119.582 33.0213C120.022 33.7146 120.242 34.5346 120.242 35.4813H117.462C117.462 35.0813 117.362 34.7146 117.162 34.3813C116.976 34.0346 116.689 33.7613 116.302 33.5613C115.929 33.348 115.449 33.2413 114.862 33.2413C114.302 33.2413 113.836 33.3346 113.462 33.5213C113.089 33.708 112.809 33.9613 112.622 34.2813C112.436 34.6013 112.342 34.948 112.342 35.3213C112.342 35.7746 112.509 36.1746 112.842 36.5213C113.176 36.8546 113.702 37.048 114.422 37.1013L115.702 37.2213C116.742 37.3013 117.656 37.5213 118.442 37.8813C119.229 38.2413 119.836 38.728 120.262 39.3413C120.702 39.9546 120.922 40.6946 120.922 41.5613C120.922 42.4813 120.682 43.2946 120.202 44.0013C119.722 44.6946 119.036 45.2346 118.142 45.6213C117.262 46.008 116.222 46.2013 115.022 46.2013ZM128.019 45.9613C127.019 45.9613 126.192 45.8346 125.539 45.5813C124.899 45.3146 124.419 44.8746 124.099 44.2613C123.779 43.6346 123.619 42.7946 123.619 41.7413L123.639 31.9013H126.239L126.219 41.9213C126.219 42.4546 126.359 42.868 126.639 43.1613C126.932 43.4413 127.345 43.5813 127.879 43.5813H129.579V45.9613H128.019ZM121.899 37.0013V34.9613H129.579V37.0013H121.899ZM137.073 46.2013C136.113 46.2013 135.267 46.048 134.533 45.7413C133.8 45.4346 133.18 45.0213 132.673 44.5013C132.167 43.968 131.78 43.368 131.513 42.7013C131.26 42.0346 131.133 41.3413 131.133 40.6213V40.2013C131.133 39.4546 131.267 38.748 131.533 38.0813C131.813 37.4013 132.207 36.8013 132.713 36.2813C133.233 35.748 133.86 35.3346 134.593 35.0413C135.327 34.7346 136.153 34.5813 137.073 34.5813C137.993 34.5813 138.82 34.7346 139.553 35.0413C140.287 35.3346 140.907 35.748 141.413 36.2813C141.933 36.8013 142.327 37.4013 142.593 38.0813C142.86 38.748 142.993 39.4546 142.993 40.2013V40.6213C142.993 41.3413 142.86 42.0346 142.593 42.7013C142.34 43.368 141.96 43.968 141.453 44.5013C140.947 45.0213 140.327 45.4346 139.593 45.7413C138.86 46.048 138.02 46.2013 137.073 46.2013ZM137.073 43.8213C137.753 43.8213 138.327 43.6746 138.793 43.3813C139.26 43.0746 139.613 42.668 139.853 42.1613C140.093 41.6413 140.213 41.0546 140.213 40.4013C140.213 39.7346 140.087 39.148 139.833 38.6413C139.593 38.1213 139.233 37.7146 138.753 37.4213C138.287 37.1146 137.727 36.9613 137.073 36.9613C136.42 36.9613 135.853 37.1146 135.373 37.4213C134.907 37.7146 134.547 38.1213 134.293 38.6413C134.04 39.148 133.913 39.7346 133.913 40.4013C133.913 41.0546 134.033 41.6413 134.273 42.1613C134.527 42.668 134.887 43.0746 135.353 43.3813C135.82 43.6746 136.393 43.8213 137.073 43.8213ZM145.428 45.8213V34.9613H147.628V39.5613H147.568C147.568 38.0013 147.901 36.8213 148.568 36.0213C149.234 35.2213 150.214 34.8213 151.508 34.8213H151.908V37.2413H151.148C150.214 37.2413 149.488 37.4946 148.968 38.0013C148.461 38.4946 148.208 39.2146 148.208 40.1613V45.8213H145.428ZM158.549 46.2013C157.616 46.2013 156.796 46.0413 156.089 45.7213C155.396 45.4013 154.816 44.9746 154.349 44.4413C153.896 43.8946 153.549 43.288 153.309 42.6213C153.083 41.9546 152.969 41.2746 152.969 40.5813V40.2013C152.969 39.4813 153.083 38.788 153.309 38.1213C153.549 37.4413 153.896 36.8413 154.349 36.3213C154.816 35.788 155.389 35.368 156.069 35.0613C156.749 34.7413 157.536 34.5813 158.429 34.5813C159.603 34.5813 160.583 34.8413 161.369 35.3613C162.169 35.868 162.769 36.5413 163.169 37.3813C163.569 38.208 163.769 39.1013 163.769 40.0613V41.0613H154.149V39.3613H162.029L161.169 40.2013C161.169 39.508 161.069 38.9146 160.869 38.4213C160.669 37.928 160.363 37.548 159.949 37.2813C159.549 37.0146 159.043 36.8813 158.429 36.8813C157.816 36.8813 157.296 37.0213 156.869 37.3013C156.443 37.5813 156.116 37.988 155.889 38.5213C155.676 39.0413 155.569 39.668 155.569 40.4013C155.569 41.0813 155.676 41.688 155.889 42.2213C156.103 42.7413 156.429 43.1546 156.869 43.4613C157.309 43.7546 157.869 43.9013 158.549 43.9013C159.229 43.9013 159.783 43.768 160.209 43.5013C160.636 43.2213 160.909 42.8813 161.029 42.4813H163.589C163.429 43.228 163.123 43.8813 162.669 44.4413C162.216 45.0013 161.636 45.4346 160.929 45.7413C160.236 46.048 159.443 46.2013 158.549 46.2013Z" fill="white"/>
<defs>
<clipPath id="clip0_3024_987">
<rect width="36" height="36" fill="white" transform="translate(16 12.8213)"/>
</clipPath>
</defs>
</svg>
