<svg width="17" height="13" viewBox="0 0 17 13" fill="none" xmlns="http://www.w3.org/2000/svg">
<path d="M16.3636 6.29134L11.1136 1.04134C10.9722 0.904726 10.7827 0.82913 10.5861 0.830839C10.3894 0.832548 10.2013 0.911425 10.0623 1.05048C9.9232 1.18954 9.84433 1.37765 9.84262 1.57429C9.84091 1.77094 9.91651 1.96039 10.0531 2.10184L14.0229 6.07159H0.833374C0.634462 6.07159 0.443696 6.15061 0.303044 6.29126C0.162392 6.43192 0.083374 6.62268 0.083374 6.82159C0.083374 7.02051 0.162392 7.21127 0.303044 7.35192C0.443696 7.49258 0.634462 7.57159 0.833374 7.57159H14.0229L10.0531 11.5413C9.98149 11.6105 9.92435 11.6933 9.88505 11.7848C9.84574 11.8763 9.82505 11.9747 9.82419 12.0743C9.82332 12.1739 9.8423 12.2726 9.88001 12.3648C9.91772 12.457 9.97341 12.5407 10.0438 12.6111C10.1142 12.6816 10.198 12.7373 10.2902 12.775C10.3823 12.8127 10.4811 12.8316 10.5807 12.8308C10.6803 12.8299 10.7787 12.8092 10.8702 12.7699C10.9617 12.7306 11.0444 12.6735 11.1136 12.6018L16.3636 7.35184C16.5042 7.2112 16.5832 7.02047 16.5832 6.82159C16.5832 6.62272 16.5042 6.43199 16.3636 6.29134Z" fill="white"/>
</svg>
