<svg width="81" height="81" viewBox="0 0 81 81" fill="none" xmlns="http://www.w3.org/2000/svg">
<rect x="0.5" y="0.821289" width="80" height="80" rx="40" fill="#01BA77"/>
<g clip-path="url(#clip0_3024_671)">
<mask id="mask0_3024_671" style="mask-type:luminance" maskUnits="userSpaceOnUse" x="16" y="16" width="50" height="52">
<path d="M64.5 16.8213H16.5V64.8213H64.5V16.8213Z" fill="white"/>
<path d="M23.5 18.2275H35.5V25.8213H23.5V18.2275Z" fill="white"/>
<path d="M41.5 63.415H52.5V30.8213H41.5V63.415Z" fill="white"/>
<path d="M16.6875 64.8213H47.3125V23.415H16.6875V64.8213Z" fill="white"/>
<path d="M45.9063 22.0088H18.0938H16.5V64.8212H48.7188V24.8213V22.0088H45.9063ZM18.0938 24.8213H45.9063V64.8213H18.0938V24.8213Z" fill="black"/>
<path d="M44.6875 66.2275V57.1494C44.6875 51.3339 49.4188 46.6026 55.2343 46.6026H64.3125V55.6807C64.3125 61.4963 59.5812 66.2275 53.7657 66.2275H44.6875Z" fill="white"/>
<path d="M65.7187 45.1963H62.9062H55.2343C48.6433 45.1963 43.2812 50.5584 43.2812 57.1494V64.8213V67.6338H46.0938H53.7657C60.3566 67.6338 65.7187 62.2717 65.7187 55.6808V48.0088V45.1963ZM62.9062 48.0088V55.6808C62.9062 60.7209 58.8058 64.8213 53.7657 64.8213H46.0938V57.1494C46.0938 52.1093 50.1942 48.0088 55.2343 48.0088H62.9062Z" fill="black"/>
<path d="M55.6667 55.2484L47.5 63.415" stroke="black" stroke-width="2.8125" stroke-miterlimit="10" stroke-linecap="square"/>
<path d="M43.5745 66.2275C39.4496 66.2275 36.0937 62.8717 36.0937 58.7468V52.4151H42.4255C46.5504 52.4151 49.9063 55.7709 49.9063 59.8958V66.2275H43.5745Z" fill="white"/>
<path d="M42.4255 51.0088H37.5H34.6875V53.8213V58.7469C34.6875 63.6472 38.6742 67.6338 43.5745 67.6338H48.5H51.3125V64.8213V59.8958C51.3125 54.9955 47.3258 51.0088 42.4255 51.0088ZM42.4255 53.8213C45.775 53.8213 48.5 56.5464 48.5 59.8958V64.8213H43.5745C40.225 64.8213 37.5 62.0963 37.5 58.7469V53.8213H42.4255Z" fill="black"/>
<path d="M28 31.1182V37.1182" stroke="black" stroke-width="2.8125" stroke-miterlimit="10"/>
<path d="M36 31.1182V37.1182" stroke="black" stroke-width="2.8125" stroke-miterlimit="10"/>
<path d="M28 41.1182V47.1182" stroke="black" stroke-width="2.8125" stroke-miterlimit="10"/>
<path d="M36 41.1182V47.1182" stroke="black" stroke-width="2.8125" stroke-miterlimit="10"/>
<path d="M28 51.1182V57.1182" stroke="black" stroke-width="2.8125" stroke-miterlimit="10"/>
</mask>
<g mask="url(#mask0_3024_671)">
<path d="M23.5 18.2275H35.5V25.8213H23.5V18.2275Z" fill="white"/>
<mask id="mask1_3024_671" style="mask-type:luminance" maskUnits="userSpaceOnUse" x="16" y="16" width="49" height="49">
<path d="M16.5 16.8213H64.5V64.8213H16.5V16.8213Z" fill="white"/>
</mask>
<g mask="url(#mask1_3024_671)">
<path d="M23.5 18.2275H35.5V25.8213H23.5V18.2275Z" stroke="white" stroke-width="2.8125" stroke-miterlimit="10"/>
</g>
<path d="M41.5 63.415H52.5V30.8213H41.5V63.415Z" fill="white"/>
<mask id="mask2_3024_671" style="mask-type:luminance" maskUnits="userSpaceOnUse" x="16" y="16" width="49" height="49">
<path d="M16.5 16.8213H64.5V64.8213H16.5V16.8213Z" fill="white"/>
</mask>
<g mask="url(#mask2_3024_671)">
<path d="M41.5 63.415H52.5V30.8213H41.5V63.415Z" stroke="white" stroke-width="2.8125" stroke-miterlimit="10"/>
</g>
<path d="M16.6875 64.8213H47.3125V23.415H16.6875V64.8213Z" fill="white"/>
<path d="M45.9064 22.0088H18.0939H16.5002V64.8212H48.7189V24.8213V22.0088H45.9064ZM18.0939 24.8213H45.9064V64.8213H18.0939V24.8213Z" fill="white"/>
<mask id="mask3_3024_671" style="mask-type:luminance" maskUnits="userSpaceOnUse" x="16" y="16" width="49" height="49">
<path d="M16.5 16.8213H64.5V64.8213H16.5V16.8213Z" fill="white"/>
</mask>
<g mask="url(#mask3_3024_671)">
<path d="M44.6875 66.2275V57.1494C44.6875 51.3339 49.4188 46.6026 55.2343 46.6026H64.3125V55.6807C64.3125 61.4963 59.5812 66.2275 53.7657 66.2275H44.6875Z" fill="white"/>
<path d="M65.7187 45.1963H62.9062H55.2343C48.6433 45.1963 43.2812 50.5584 43.2812 57.1494V64.8213V67.6338H46.0938H53.7657C60.3566 67.6338 65.7187 62.2717 65.7187 55.6808V48.0088V45.1963ZM62.9062 48.0088V55.6808C62.9062 60.7209 58.8058 64.8213 53.7657 64.8213H46.0938V57.1494C46.0938 52.1093 50.1942 48.0088 55.2343 48.0088H62.9062Z" fill="white"/>
<path d="M55.6667 55.2484L47.5 63.415" stroke="white" stroke-width="2.8125" stroke-miterlimit="10" stroke-linecap="square"/>
<path d="M43.5745 66.2275C39.4496 66.2275 36.0937 62.8717 36.0937 58.7468V52.4151H42.4255C46.5504 52.4151 49.9063 55.7709 49.9063 59.8958V66.2275H43.5745Z" fill="white"/>
<path d="M42.4255 51.0088H37.5H34.6875V53.8213V58.7469C34.6875 63.6472 38.6742 67.6338 43.5745 67.6338H48.5H51.3125V64.8213V59.8958C51.3125 54.9955 47.3258 51.0088 42.4255 51.0088ZM42.4255 53.8213C45.775 53.8213 48.5 56.5464 48.5 59.8958V64.8213H43.5745C40.225 64.8213 37.5 62.0963 37.5 58.7469V53.8213H42.4255Z" fill="white"/>
<path d="M28 31.1182V37.1182" stroke="white" stroke-width="2.8125" stroke-miterlimit="10"/>
<path d="M36 31.1182V37.1182" stroke="white" stroke-width="2.8125" stroke-miterlimit="10"/>
<path d="M28 41.1182V47.1182" stroke="white" stroke-width="2.8125" stroke-miterlimit="10"/>
<path d="M36 41.1182V47.1182" stroke="white" stroke-width="2.8125" stroke-miterlimit="10"/>
<path d="M28 51.1182V57.1182" stroke="white" stroke-width="2.8125" stroke-miterlimit="10"/>
</g>
</g>
</g>
<defs>
<clipPath id="clip0_3024_671">
<rect width="48" height="48" fill="white" transform="translate(16.5 16.8213)"/>
</clipPath>
</defs>
</svg>
