<svg width="81" height="81" viewBox="0 0 81 81" fill="none" xmlns="http://www.w3.org/2000/svg">
<rect x="0.86145" y="0.821533" width="80" height="80" rx="40" fill="#01BA77"/>
<g clip-path="url(#clip0_3024_634)">
<path d="M34.8618 30.9312L36.8505 32.92C38.0178 31.7528 39.9168 31.7527 41.0841 32.92L43.0728 30.9312C40.8092 28.6675 37.1255 28.6674 34.8618 30.9312Z" fill="white"/>
<path d="M31.1484 27.2179L33.1371 29.2067C36.352 25.9919 41.5828 25.9921 44.7975 29.2067L46.7863 27.2179C42.4747 22.9065 35.4597 22.9066 31.1484 27.2179Z" fill="white"/>
<path d="M25.0571 30.4175C24.4777 28.7806 22.913 27.605 21.0802 27.605C18.7543 27.605 16.8615 29.4978 16.8615 31.8237C16.8615 34.1506 18.7543 36.0425 21.0802 36.0425C22.9129 36.0425 24.4775 34.8669 25.057 33.2303H28.8615V30.4178H25.0572C25.0572 30.4177 25.0571 30.4176 25.0571 30.4175Z" fill="white"/>
<path d="M57.8302 18.8008C53.9527 18.8008 50.799 21.9555 50.799 25.832C50.799 27.2045 51.1636 28.7383 51.8883 30.4173L51.8884 30.4176H49.1115V33.2301H53.3557C53.5084 33.4841 53.6687 33.7409 53.8364 34.0005C55.2858 36.2477 56.7221 37.8592 56.783 37.9267L57.8302 39.0958L58.8774 37.9267C58.9383 37.8592 60.3746 36.2477 61.824 34.0005C63.8396 30.8767 64.8615 28.1289 64.8615 25.832C64.8615 21.9555 61.7077 18.8008 57.8302 18.8008ZM56.424 24.4258H59.2365V27.2383H56.424V24.4258Z" fill="white"/>
<path d="M33.6896 38.7483H44.1821L51.3071 47.092H33.6896V38.7483Z" fill="white"/>
<path d="M18.3146 60.4045V52.2483H22.9083V49.4358H18.459C19.0702 46.5014 21.5527 44.2458 24.5958 43.9777L28.8615 38.7483H30.8771V49.9045H60.9483L63.4083 52.313V60.4045H57.0333C57.0333 57.5095 54.6783 55.1545 51.7833 55.1545C48.8883 55.1545 46.5333 57.5095 46.5333 60.4045H34.1583C34.1583 57.5095 31.8033 55.1545 28.9083 55.1545C26.0133 55.1545 23.6583 57.5095 23.6583 60.4045H18.3146Z" fill="white"/>
<path d="M51.7833 62.842C53.1295 62.842 54.2208 61.7507 54.2208 60.4045C54.2208 59.0583 53.1295 57.967 51.7833 57.967C50.4371 57.967 49.3458 59.0583 49.3458 60.4045C49.3458 61.7507 50.4371 62.842 51.7833 62.842Z" fill="white"/>
<path d="M28.9083 62.842C30.2545 62.842 31.3458 61.7507 31.3458 60.4045C31.3458 59.0583 30.2545 57.967 28.9083 57.967C27.5621 57.967 26.4708 59.0583 26.4708 60.4045C26.4708 61.7507 27.5621 62.842 28.9083 62.842Z" fill="white"/>
</g>
<defs>
<clipPath id="clip0_3024_634">
<rect width="48" height="48" fill="white" transform="translate(16.8615 16.8215)"/>
</clipPath>
</defs>
</svg>
