<svg width="33" height="33" viewBox="0 0 33 33" fill="none" xmlns="http://www.w3.org/2000/svg">
<g clip-path="url(#clip0_3017_2208)">
<path d="M29.3961 4.41077C29.0276 4.41077 28.7295 4.70895 28.7295 5.07745V5.74414H27.3961V5.07745C27.3961 4.70895 27.098 4.41077 26.7295 4.41077C26.361 4.41077 26.0628 4.70895 26.0628 5.07745V7.74414C26.0628 8.61214 26.6218 9.3452 27.3961 9.62133V23.7441C27.3961 24.112 27.0966 24.4108 26.7294 24.4108C26.3622 24.4108 26.0627 24.112 26.0627 23.7441V22.4108C26.0627 21.5428 25.5037 20.8097 24.7294 20.5336V3.07745C24.7295 1.6067 23.5328 0.410767 22.0628 0.410767H8.72946C7.2594 0.410767 6.06278 1.6067 6.06278 3.07745V27.0775C4.59271 27.0775 3.39609 28.2734 3.39609 29.7441V31.7441C3.39609 32.1126 3.69428 32.4108 4.06278 32.4108H26.7295C27.098 32.4108 27.3961 32.1126 27.3961 31.7441V29.7441C27.3961 28.2735 26.1995 27.0775 24.7295 27.0775V23.7441C24.7295 24.847 25.6266 25.7441 26.7295 25.7441C27.8323 25.7441 28.7295 24.847 28.7295 23.7441V9.62127C29.5038 9.34514 30.0628 8.61208 30.0628 7.74408V5.07745C30.0628 4.70895 29.7646 4.41077 29.3961 4.41077ZM19.3011 18.7539L15.3011 25.4206C15.1787 25.625 14.96 25.7441 14.7295 25.7441C14.6708 25.7441 14.611 25.7363 14.5511 25.7201C14.2633 25.64 14.0628 25.377 14.0628 25.0775V21.7442H12.0628C11.8232 21.7442 11.6005 21.6153 11.482 21.4063C11.3648 21.1973 11.3675 20.9408 11.4911 20.7345L15.4911 14.0678C15.6448 13.8113 15.9469 13.6888 16.2411 13.7683C16.529 13.8483 16.7295 14.1113 16.7295 14.4108V17.7441H18.7295C18.969 17.7441 19.1917 17.873 19.3102 18.082C19.4274 18.291 19.4248 18.5475 19.3011 18.7539ZM22.0628 11.7565C22.0628 12.125 21.7646 12.4231 21.3961 12.4231H9.39609C9.02759 12.4231 8.7294 12.125 8.7294 11.7565V3.74408C8.7294 3.37558 9.02759 3.07739 9.39609 3.07739H21.3961C21.7646 3.07739 22.0628 3.37558 22.0628 3.74408V11.7565Z" fill="white"/>
</g>
<defs>
<clipPath id="clip0_3017_2208">
<rect width="32" height="32" fill="white" transform="translate(0.729492 0.410767)"/>
</clipPath>
</defs>
</svg>
