<svg width="199" height="61" viewBox="0 0 199 61" fill="none" xmlns="http://www.w3.org/2000/svg">
<rect width="199" height="60" transform="translate(0 0.821289)" fill="black"/>
<g clip-path="url(#clip0_3024_996)">
<path d="M18.4895 13.378C18.0825 13.8088 17.8418 14.4777 17.8418 15.3443V46.2988C17.8418 47.1662 18.0825 47.8344 18.4895 48.2652L18.5931 48.3661L35.9332 31.0261V30.8217V30.617L18.5931 13.2764L18.4895 13.378Z" fill="url(#paint0_linear_3024_996)"/>
<path d="M41.7123 36.8085L35.9326 31.026V30.8216V30.617L41.7136 24.8359L41.8439 24.9103L48.6921 28.8014C50.6482 29.9127 50.6482 31.7311 48.6921 32.8431L41.8439 36.7343L41.7123 36.8085Z" fill="url(#paint1_linear_3024_996)"/>
<path d="M41.8443 36.7332L35.9329 30.8213L18.4893 48.2648C19.1342 48.9474 20.1985 49.0319 21.3979 48.3508L41.8443 36.7332Z" fill="url(#paint2_linear_3024_996)"/>
<path d="M41.8443 24.9093L21.3979 13.2917C20.1985 12.6106 19.1342 12.6951 18.4893 13.3777L35.9329 30.8213L41.8443 24.9093Z" fill="url(#paint3_linear_3024_996)"/>
</g>
<path d="M62.4932 24.8693V23.7893H64.6772C65.2052 23.7893 65.6732 23.7053 66.0812 23.5373C66.4972 23.3613 66.8492 23.1213 67.1372 22.8173C67.4332 22.5133 67.6572 22.1573 67.8092 21.7493C67.9612 21.3413 68.0372 20.9013 68.0372 20.4293C68.0372 19.9333 67.9612 19.4853 67.8092 19.0853C67.6572 18.6773 67.4332 18.3253 67.1372 18.0293C66.8492 17.7253 66.4972 17.4933 66.0812 17.3333C65.6732 17.1733 65.2052 17.0933 64.6772 17.0933H62.4932V16.0133H64.5572C65.3492 16.0133 66.0372 16.1373 66.6212 16.3853C67.2052 16.6253 67.6892 16.9533 68.0732 17.3693C68.4652 17.7773 68.7572 18.2373 68.9492 18.7493C69.1412 19.2533 69.2372 19.7693 69.2372 20.2973V20.5613C69.2372 21.0733 69.1412 21.5853 68.9492 22.0973C68.7572 22.6093 68.4652 23.0733 68.0732 23.4893C67.6892 23.9053 67.2052 24.2413 66.6212 24.4973C66.0372 24.7453 65.3492 24.8693 64.5572 24.8693H62.4932ZM61.5572 24.8693V16.0133H62.7332V24.8693H61.5572ZM73.8333 25.0373C73.2733 25.0373 72.7813 24.9413 72.3573 24.7493C71.9333 24.5573 71.5733 24.3053 71.2773 23.9933C70.9893 23.6733 70.7693 23.3173 70.6173 22.9253C70.4733 22.5333 70.4013 22.1333 70.4013 21.7253V21.5093C70.4013 21.1013 70.4773 20.7013 70.6293 20.3093C70.7813 19.9093 71.0053 19.5533 71.3013 19.2413C71.5973 18.9213 71.9573 18.6693 72.3813 18.4853C72.8053 18.2933 73.2893 18.1973 73.8333 18.1973C74.3773 18.1973 74.8613 18.2933 75.2853 18.4853C75.7093 18.6693 76.0693 18.9213 76.3653 19.2413C76.6613 19.5533 76.8853 19.9093 77.0373 20.3093C77.1893 20.7013 77.2653 21.1013 77.2653 21.5093V21.7253C77.2653 22.1333 77.1893 22.5333 77.0373 22.9253C76.8933 23.3173 76.6733 23.6733 76.3773 23.9933C76.0893 24.3053 75.7333 24.5573 75.3093 24.7493C74.8853 24.9413 74.3933 25.0373 73.8333 25.0373ZM73.8333 24.0053C74.3133 24.0053 74.7213 23.9013 75.0573 23.6933C75.4013 23.4773 75.6613 23.1893 75.8373 22.8293C76.0213 22.4693 76.1133 22.0653 76.1133 21.6173C76.1133 21.1613 76.0213 20.7533 75.8373 20.3933C75.6533 20.0333 75.3893 19.7493 75.0453 19.5413C74.7093 19.3333 74.3053 19.2293 73.8333 19.2293C73.3693 19.2293 72.9653 19.3333 72.6213 19.5413C72.2773 19.7493 72.0133 20.0333 71.8293 20.3933C71.6453 20.7533 71.5533 21.1613 71.5533 21.6173C71.5533 22.0653 71.6413 22.4693 71.8173 22.8293C72.0013 23.1893 72.2613 23.4773 72.5973 23.6933C72.9413 23.9013 73.3533 24.0053 73.8333 24.0053ZM80.7455 24.8213L82.0415 18.6293H83.6015L85.1135 24.8213H84.1295L82.6175 18.6533H83.0015L81.6935 24.8213H80.7455ZM80.1575 24.8213V23.9093H81.4895V24.8213H80.1575ZM79.8935 24.8213L78.0815 18.4133H79.1855L80.9495 24.8213H79.8935ZM84.3695 24.8213V23.9093H85.7015V24.8213H84.3695ZM84.9095 24.8213L86.4455 18.4133H87.4895L85.9175 24.8213H84.9095ZM89.0454 24.8213V18.4133H89.9574V21.1613H89.8134C89.8134 20.5293 89.8974 19.9973 90.0654 19.5653C90.2414 19.1253 90.5054 18.7933 90.8574 18.5693C91.2094 18.3373 91.6534 18.2213 92.1894 18.2213H92.2374C93.0454 18.2213 93.6414 18.4733 94.0254 18.9773C94.4174 19.4813 94.6134 20.2093 94.6134 21.1613V24.8213H93.4614V20.9213C93.4614 20.4253 93.3214 20.0293 93.0414 19.7333C92.7614 19.4293 92.3774 19.2773 91.8894 19.2773C91.3854 19.2773 90.9774 19.4333 90.6654 19.7453C90.3534 20.0573 90.1974 20.4733 90.1974 20.9933V24.8213H89.0454ZM96.7932 24.8213V16.0613H97.9452V24.8213H96.7932ZM95.9052 16.9733V16.0613H97.9452V16.9733H95.9052ZM103.107 25.0373C102.547 25.0373 102.055 24.9413 101.631 24.7493C101.207 24.5573 100.847 24.3053 100.551 23.9933C100.263 23.6733 100.043 23.3173 99.8908 22.9253C99.7468 22.5333 99.6748 22.1333 99.6748 21.7253V21.5093C99.6748 21.1013 99.7508 20.7013 99.9028 20.3093C100.055 19.9093 100.279 19.5533 100.575 19.2413C100.871 18.9213 101.231 18.6693 101.655 18.4853C102.079 18.2933 102.563 18.1973 103.107 18.1973C103.651 18.1973 104.135 18.2933 104.559 18.4853C104.983 18.6693 105.343 18.9213 105.639 19.2413C105.935 19.5533 106.159 19.9093 106.311 20.3093C106.463 20.7013 106.539 21.1013 106.539 21.5093V21.7253C106.539 22.1333 106.463 22.5333 106.311 22.9253C106.167 23.3173 105.947 23.6733 105.651 23.9933C105.363 24.3053 105.007 24.5573 104.583 24.7493C104.159 24.9413 103.667 25.0373 103.107 25.0373ZM103.107 24.0053C103.587 24.0053 103.995 23.9013 104.331 23.6933C104.675 23.4773 104.935 23.1893 105.111 22.8293C105.295 22.4693 105.387 22.0653 105.387 21.6173C105.387 21.1613 105.295 20.7533 105.111 20.3933C104.927 20.0333 104.663 19.7493 104.319 19.5413C103.983 19.3333 103.579 19.2293 103.107 19.2293C102.643 19.2293 102.239 19.3333 101.895 19.5413C101.551 19.7493 101.287 20.0333 101.103 20.3933C100.919 20.7533 100.827 21.1613 100.827 21.6173C100.827 22.0653 100.915 22.4693 101.091 22.8293C101.275 23.1893 101.535 23.4773 101.871 23.6933C102.215 23.9013 102.627 24.0053 103.107 24.0053ZM112.14 24.8213V22.9013H111.948V20.6813C111.948 20.2413 111.832 19.9093 111.6 19.6853C111.376 19.4613 111.044 19.3493 110.604 19.3493C110.356 19.3493 110.1 19.3533 109.836 19.3613C109.572 19.3693 109.32 19.3773 109.08 19.3853C108.84 19.3933 108.632 19.4053 108.456 19.4213V18.4133C108.632 18.3973 108.816 18.3853 109.008 18.3773C109.208 18.3613 109.412 18.3533 109.62 18.3533C109.828 18.3453 110.028 18.3413 110.22 18.3413C110.876 18.3413 111.412 18.4213 111.828 18.5813C112.244 18.7333 112.552 18.9853 112.752 19.3373C112.952 19.6893 113.052 20.1653 113.052 20.7653V24.8213H112.14ZM110.04 24.9893C109.56 24.9893 109.144 24.9093 108.792 24.7493C108.448 24.5813 108.18 24.3413 107.988 24.0293C107.804 23.7173 107.712 23.3413 107.712 22.9013C107.712 22.4453 107.812 22.0653 108.012 21.7613C108.22 21.4573 108.52 21.2293 108.912 21.0773C109.304 20.9173 109.776 20.8373 110.328 20.8373H112.068V21.7013H110.28C109.816 21.7013 109.46 21.8133 109.212 22.0373C108.964 22.2613 108.84 22.5493 108.84 22.9013C108.84 23.2533 108.964 23.5373 109.212 23.7533C109.46 23.9693 109.816 24.0773 110.28 24.0773C110.552 24.0773 110.812 24.0293 111.06 23.9333C111.308 23.8293 111.512 23.6613 111.672 23.4293C111.84 23.1893 111.932 22.8613 111.948 22.4453L112.26 22.9013C112.22 23.3573 112.108 23.7413 111.924 24.0533C111.748 24.3573 111.5 24.5893 111.18 24.7493C110.868 24.9093 110.488 24.9893 110.04 24.9893ZM117.843 25.0373C117.387 25.0373 116.967 24.9533 116.583 24.7853C116.199 24.6173 115.863 24.3813 115.575 24.0773C115.295 23.7733 115.075 23.4213 114.915 23.0213C114.763 22.6213 114.687 22.1893 114.687 21.7253V21.5093C114.687 21.0533 114.763 20.6253 114.915 20.2253C115.067 19.8253 115.279 19.4733 115.551 19.1693C115.831 18.8653 116.159 18.6293 116.535 18.4613C116.919 18.2853 117.343 18.1973 117.807 18.1973C118.295 18.1973 118.739 18.3013 119.139 18.5093C119.539 18.7093 119.867 19.0253 120.122 19.4573C120.378 19.8893 120.523 20.4493 120.555 21.1373L120.075 20.3693V16.0613H121.227V24.8213H120.315V21.9773H120.651C120.619 22.7053 120.467 23.2973 120.195 23.7533C119.923 24.2013 119.579 24.5293 119.163 24.7373C118.755 24.9373 118.315 25.0373 117.843 25.0373ZM117.999 24.0293C118.391 24.0293 118.747 23.9413 119.067 23.7653C119.387 23.5893 119.643 23.3373 119.835 23.0093C120.027 22.6733 120.122 22.2813 120.122 21.8333V21.2813C120.122 20.8413 120.023 20.4693 119.823 20.1653C119.631 19.8533 119.371 19.6173 119.043 19.4573C118.723 19.2893 118.371 19.2053 117.987 19.2053C117.563 19.2053 117.187 19.3053 116.859 19.5053C116.539 19.7053 116.287 19.9853 116.103 20.3453C115.927 20.7053 115.839 21.1293 115.839 21.6173C115.839 22.1053 115.931 22.5333 116.115 22.9013C116.299 23.2613 116.555 23.5413 116.883 23.7413C117.211 23.9333 117.583 24.0293 117.999 24.0293ZM129.122 25.0373C128.562 25.0373 128.07 24.9413 127.646 24.7493C127.222 24.5573 126.862 24.3053 126.566 23.9933C126.278 23.6733 126.058 23.3173 125.906 22.9253C125.762 22.5333 125.69 22.1333 125.69 21.7253V21.5093C125.69 21.1013 125.766 20.7013 125.918 20.3093C126.07 19.9093 126.294 19.5533 126.59 19.2413C126.886 18.9213 127.246 18.6693 127.67 18.4853C128.094 18.2933 128.578 18.1973 129.122 18.1973C129.666 18.1973 130.15 18.2933 130.574 18.4853C130.998 18.6693 131.358 18.9213 131.654 19.2413C131.95 19.5533 132.174 19.9093 132.326 20.3093C132.478 20.7013 132.554 21.1013 132.554 21.5093V21.7253C132.554 22.1333 132.478 22.5333 132.326 22.9253C132.182 23.3173 131.962 23.6733 131.666 23.9933C131.378 24.3053 131.022 24.5573 130.598 24.7493C130.174 24.9413 129.682 25.0373 129.122 25.0373ZM129.122 24.0053C129.602 24.0053 130.01 23.9013 130.346 23.6933C130.69 23.4773 130.95 23.1893 131.126 22.8293C131.31 22.4693 131.402 22.0653 131.402 21.6173C131.402 21.1613 131.31 20.7533 131.126 20.3933C130.942 20.0333 130.678 19.7493 130.334 19.5413C129.998 19.3333 129.594 19.2293 129.122 19.2293C128.658 19.2293 128.254 19.3333 127.91 19.5413C127.566 19.7493 127.302 20.0333 127.118 20.3933C126.934 20.7533 126.842 21.1613 126.842 21.6173C126.842 22.0653 126.93 22.4693 127.106 22.8293C127.29 23.1893 127.55 23.4773 127.886 23.6933C128.23 23.9013 128.642 24.0053 129.122 24.0053ZM134.28 24.8213V18.4133H135.192V21.1613H135.048C135.048 20.5293 135.132 19.9973 135.3 19.5653C135.476 19.1253 135.74 18.7933 136.092 18.5693C136.444 18.3373 136.888 18.2213 137.424 18.2213H137.472C138.28 18.2213 138.876 18.4733 139.26 18.9773C139.652 19.4813 139.848 20.2093 139.848 21.1613V24.8213H138.696V20.9213C138.696 20.4253 138.556 20.0293 138.276 19.7333C137.996 19.4293 137.612 19.2773 137.124 19.2773C136.62 19.2773 136.212 19.4333 135.9 19.7453C135.588 20.0573 135.432 20.4733 135.432 20.9933V24.8213H134.28ZM147.182 24.8933C146.702 24.8933 146.286 24.8253 145.934 24.6893C145.59 24.5533 145.322 24.3213 145.13 23.9933C144.946 23.6573 144.854 23.2053 144.854 22.6373V16.4693H145.958V22.7813C145.958 23.1253 146.05 23.3933 146.234 23.5853C146.426 23.7693 146.694 23.8613 147.038 23.8613H148.166V24.8933H147.182ZM143.75 19.2773V18.4133H148.166V19.2773H143.75ZM149.795 24.8213V16.0613H150.947V21.2933H150.659C150.659 20.6613 150.739 20.1173 150.899 19.6613C151.067 19.1973 151.323 18.8413 151.667 18.5933C152.011 18.3453 152.451 18.2213 152.987 18.2213H153.035C153.803 18.2213 154.383 18.4773 154.775 18.9893C155.167 19.4933 155.363 20.2173 155.363 21.1613V24.8213H154.211V20.9213C154.211 20.4013 154.063 19.9973 153.767 19.7093C153.479 19.4213 153.103 19.2773 152.639 19.2773C152.127 19.2773 151.715 19.4493 151.403 19.7933C151.099 20.1293 150.947 20.5733 150.947 21.1253V24.8213H149.795ZM160.195 25.0373C159.635 25.0373 159.151 24.9413 158.743 24.7493C158.335 24.5573 158.003 24.3053 157.747 23.9933C157.491 23.6733 157.299 23.3173 157.171 22.9253C157.051 22.5333 156.991 22.1333 156.991 21.7253V21.5093C156.991 21.0933 157.051 20.6893 157.171 20.2973C157.299 19.9053 157.491 19.5533 157.747 19.2413C158.003 18.9213 158.327 18.6693 158.719 18.4853C159.119 18.2933 159.587 18.1973 160.123 18.1973C160.819 18.1973 161.391 18.3493 161.839 18.6533C162.295 18.9493 162.631 19.3333 162.847 19.8053C163.071 20.2773 163.183 20.7813 163.183 21.3173V21.8333H157.495V20.9693H162.343L162.079 21.4373C162.079 20.9813 162.007 20.5893 161.863 20.2613C161.719 19.9253 161.503 19.6653 161.215 19.4813C160.927 19.2973 160.563 19.2053 160.123 19.2053C159.667 19.2053 159.287 19.3093 158.983 19.5173C158.687 19.7253 158.463 20.0093 158.311 20.3693C158.167 20.7293 158.095 21.1453 158.095 21.6173C158.095 22.0733 158.167 22.4853 158.311 22.8533C158.463 23.2133 158.695 23.5013 159.007 23.7173C159.319 23.9253 159.715 24.0293 160.195 24.0293C160.699 24.0293 161.107 23.9173 161.419 23.6933C161.739 23.4693 161.931 23.2093 161.995 22.9133H163.075C162.987 23.3533 162.811 23.7333 162.547 24.0533C162.283 24.3733 161.951 24.6173 161.551 24.7853C161.151 24.9533 160.699 25.0373 160.195 25.0373Z" fill="white"/>
<path d="M68.9184 46.2013C67.665 46.2013 66.5584 45.9946 65.5984 45.5813C64.6517 45.1546 63.8517 44.588 63.1984 43.8813C62.5584 43.1613 62.0717 42.3546 61.7384 41.4613C61.4184 40.5546 61.2584 39.6146 61.2584 38.6413V38.2013C61.2584 37.2813 61.4184 36.3813 61.7384 35.5013C62.0584 34.6213 62.525 33.828 63.1384 33.1213C63.765 32.4146 64.5317 31.8546 65.4384 31.4413C66.3584 31.0146 67.4117 30.8013 68.5984 30.8013C69.8784 30.8013 71.0117 31.0413 71.9984 31.5213C72.985 31.988 73.7784 32.648 74.3784 33.5013C74.9784 34.3413 75.3317 35.3213 75.4384 36.4413H72.5784C72.485 35.8146 72.2517 35.2813 71.8784 34.8413C71.505 34.388 71.0317 34.0413 70.4584 33.8013C69.8984 33.5613 69.2784 33.4413 68.5984 33.4413C67.9184 33.4413 67.2984 33.5613 66.7384 33.8013C66.1917 34.0413 65.725 34.3813 65.3384 34.8213C64.9517 35.2613 64.6517 35.788 64.4384 36.4013C64.2384 37.0146 64.1384 37.6946 64.1384 38.4413C64.1384 39.2546 64.2517 39.9813 64.4784 40.6213C64.705 41.2613 65.025 41.808 65.4384 42.2613C65.8517 42.7013 66.3517 43.0413 66.9384 43.2813C67.525 43.508 68.185 43.6213 68.9184 43.6213C69.8917 43.6213 70.745 43.4213 71.4784 43.0213C72.2117 42.608 72.745 42.0746 73.0784 41.4213L72.5784 43.7213V39.9613H75.1984V43.2013C74.5717 44.148 73.7184 44.888 72.6384 45.4213C71.5584 45.9413 70.3184 46.2013 68.9184 46.2013ZM68.4584 40.5213V38.4013H76.4184V40.5213H68.4584ZM83.759 46.2013C82.799 46.2013 81.9523 46.048 81.219 45.7413C80.4857 45.4346 79.8657 45.0213 79.359 44.5013C78.8523 43.968 78.4657 43.368 78.199 42.7013C77.9457 42.0346 77.819 41.3413 77.819 40.6213V40.2013C77.819 39.4546 77.9523 38.748 78.219 38.0813C78.499 37.4013 78.8923 36.8013 79.399 36.2813C79.919 35.748 80.5457 35.3346 81.279 35.0413C82.0123 34.7346 82.839 34.5813 83.759 34.5813C84.679 34.5813 85.5057 34.7346 86.239 35.0413C86.9723 35.3346 87.5923 35.748 88.099 36.2813C88.619 36.8013 89.0123 37.4013 89.279 38.0813C89.5457 38.748 89.679 39.4546 89.679 40.2013V40.6213C89.679 41.3413 89.5457 42.0346 89.279 42.7013C89.0257 43.368 88.6457 43.968 88.139 44.5013C87.6323 45.0213 87.0123 45.4346 86.279 45.7413C85.5457 46.048 84.7057 46.2013 83.759 46.2013ZM83.759 43.8213C84.439 43.8213 85.0123 43.6746 85.479 43.3813C85.9457 43.0746 86.299 42.668 86.539 42.1613C86.779 41.6413 86.899 41.0546 86.899 40.4013C86.899 39.7346 86.7723 39.148 86.519 38.6413C86.279 38.1213 85.919 37.7146 85.439 37.4213C84.9723 37.1146 84.4123 36.9613 83.759 36.9613C83.1057 36.9613 82.539 37.1146 82.059 37.4213C81.5923 37.7146 81.2323 38.1213 80.979 38.6413C80.7257 39.148 80.599 39.7346 80.599 40.4013C80.599 41.0546 80.719 41.6413 80.959 42.1613C81.2123 42.668 81.5723 43.0746 82.039 43.3813C82.5057 43.6746 83.079 43.8213 83.759 43.8213ZM97.3332 46.2013C96.3732 46.2013 95.5265 46.048 94.7932 45.7413C94.0599 45.4346 93.4399 45.0213 92.9332 44.5013C92.4265 43.968 92.0399 43.368 91.7732 42.7013C91.5199 42.0346 91.3932 41.3413 91.3932 40.6213V40.2013C91.3932 39.4546 91.5265 38.748 91.7932 38.0813C92.0732 37.4013 92.4665 36.8013 92.9732 36.2813C93.4932 35.748 94.1199 35.3346 94.8532 35.0413C95.5865 34.7346 96.4132 34.5813 97.3332 34.5813C98.2532 34.5813 99.0799 34.7346 99.8132 35.0413C100.547 35.3346 101.167 35.748 101.673 36.2813C102.193 36.8013 102.587 37.4013 102.853 38.0813C103.12 38.748 103.253 39.4546 103.253 40.2013V40.6213C103.253 41.3413 103.12 42.0346 102.853 42.7013C102.6 43.368 102.22 43.968 101.713 44.5013C101.207 45.0213 100.587 45.4346 99.8532 45.7413C99.1199 46.048 98.2799 46.2013 97.3332 46.2013ZM97.3332 43.8213C98.0132 43.8213 98.5865 43.6746 99.0532 43.3813C99.5199 43.0746 99.8732 42.668 100.113 42.1613C100.353 41.6413 100.473 41.0546 100.473 40.4013C100.473 39.7346 100.347 39.148 100.093 38.6413C99.8532 38.1213 99.4932 37.7146 99.0132 37.4213C98.5465 37.1146 97.9865 36.9613 97.3332 36.9613C96.6799 36.9613 96.1132 37.1146 95.6332 37.4213C95.1665 37.7146 94.8065 38.1213 94.5532 38.6413C94.2999 39.148 94.1732 39.7346 94.1732 40.4013C94.1732 41.0546 94.2932 41.6413 94.5332 42.1613C94.7865 42.668 95.1465 43.0746 95.6132 43.3813C96.0799 43.6746 96.6532 43.8213 97.3332 43.8213ZM109.927 50.1013C109.407 50.1013 108.874 50.0813 108.327 50.0413C107.794 50.0013 107.294 49.948 106.827 49.8813V47.5613C107.307 47.6146 107.821 47.6613 108.367 47.7013C108.914 47.7546 109.427 47.7813 109.907 47.7813C110.801 47.7813 111.521 47.6746 112.067 47.4613C112.627 47.248 113.034 46.908 113.287 46.4413C113.554 45.988 113.687 45.408 113.687 44.7013V42.5613L114.287 41.2013C114.247 42.2013 114.041 43.0546 113.667 43.7613C113.294 44.4546 112.787 44.988 112.147 45.3613C111.507 45.7213 110.767 45.9013 109.927 45.9013C109.181 45.9013 108.501 45.7613 107.887 45.4813C107.287 45.2013 106.767 44.8146 106.327 44.3213C105.901 43.828 105.567 43.248 105.327 42.5813C105.087 41.9146 104.967 41.2013 104.967 40.4413V40.0213C104.967 39.2613 105.087 38.5546 105.327 37.9013C105.581 37.2346 105.934 36.6546 106.387 36.1613C106.841 35.668 107.381 35.288 108.007 35.0213C108.634 34.7546 109.327 34.6213 110.087 34.6213C110.981 34.6213 111.754 34.8146 112.407 35.2013C113.074 35.588 113.594 36.148 113.967 36.8813C114.341 37.6146 114.547 38.5146 114.587 39.5813L114.107 39.6613V34.9613H116.307V44.5413C116.307 45.8613 116.081 46.928 115.627 47.7413C115.174 48.5546 114.474 49.148 113.527 49.5213C112.594 49.908 111.394 50.1013 109.927 50.1013ZM110.727 43.5213C111.261 43.5213 111.747 43.4013 112.187 43.1613C112.627 42.9213 112.981 42.5746 113.247 42.1213C113.514 41.668 113.647 41.1213 113.647 40.4813V39.7813C113.647 39.168 113.507 38.648 113.227 38.2213C112.961 37.7946 112.607 37.4746 112.167 37.2613C111.727 37.0346 111.247 36.9213 110.727 36.9213C110.141 36.9213 109.621 37.0613 109.167 37.3413C108.727 37.608 108.381 37.988 108.127 38.4813C107.874 38.9746 107.747 39.5613 107.747 40.2413C107.747 40.908 107.874 41.488 108.127 41.9813C108.381 42.4746 108.727 42.8546 109.167 43.1213C109.621 43.388 110.141 43.5213 110.727 43.5213ZM119.48 45.8213V31.2213H122.26V45.8213H119.48ZM118.12 33.3013V31.2213H122.26V33.3013H118.12ZM130.294 46.2013C129.36 46.2013 128.54 46.0413 127.834 45.7213C127.14 45.4013 126.56 44.9746 126.094 44.4413C125.64 43.8946 125.294 43.288 125.054 42.6213C124.827 41.9546 124.714 41.2746 124.714 40.5813V40.2013C124.714 39.4813 124.827 38.788 125.054 38.1213C125.294 37.4413 125.64 36.8413 126.094 36.3213C126.56 35.788 127.134 35.368 127.814 35.0613C128.494 34.7413 129.28 34.5813 130.174 34.5813C131.347 34.5813 132.327 34.8413 133.114 35.3613C133.914 35.868 134.514 36.5413 134.914 37.3813C135.314 38.208 135.514 39.1013 135.514 40.0613V41.0613H125.894V39.3613H133.774L132.914 40.2013C132.914 39.508 132.814 38.9146 132.614 38.4213C132.414 37.928 132.107 37.548 131.694 37.2813C131.294 37.0146 130.787 36.8813 130.174 36.8813C129.56 36.8813 129.04 37.0213 128.614 37.3013C128.187 37.5813 127.86 37.988 127.634 38.5213C127.42 39.0413 127.314 39.668 127.314 40.4013C127.314 41.0813 127.42 41.688 127.634 42.2213C127.847 42.7413 128.174 43.1546 128.614 43.4613C129.054 43.7546 129.614 43.9013 130.294 43.9013C130.974 43.9013 131.527 43.768 131.954 43.5013C132.38 43.2213 132.654 42.8813 132.774 42.4813H135.334C135.174 43.228 134.867 43.8813 134.414 44.4413C133.96 45.0013 133.38 45.4346 132.674 45.7413C131.98 46.048 131.187 46.2013 130.294 46.2013ZM144.812 41.3413V38.8813H147.652C148.226 38.8813 148.706 38.768 149.092 38.5413C149.492 38.3146 149.792 38.0013 149.992 37.6013C150.206 37.2013 150.312 36.7413 150.312 36.2213C150.312 35.7013 150.206 35.2413 149.992 34.8413C149.792 34.4413 149.492 34.1346 149.092 33.9213C148.706 33.6946 148.226 33.5813 147.652 33.5813H144.812V31.1213H147.412C148.639 31.1213 149.679 31.3213 150.532 31.7213C151.399 32.1213 152.059 32.6946 152.512 33.4413C152.966 34.1746 153.192 35.048 153.192 36.0613V36.3813C153.192 37.3946 152.966 38.2746 152.512 39.0213C152.059 39.7546 151.399 40.328 150.532 40.7413C149.679 41.1413 148.639 41.3413 147.412 41.3413H144.812ZM142.372 45.8213V31.1213H145.212V45.8213H142.372ZM155.456 45.8213V31.2213H158.236V45.8213H155.456ZM154.096 33.3013V31.2213H158.236V33.3013H154.096ZM167.99 45.8213V42.6013H167.53V39.0213C167.53 38.3946 167.377 37.928 167.07 37.6213C166.763 37.3146 166.29 37.1613 165.65 37.1613C165.317 37.1613 164.917 37.168 164.45 37.1813C163.983 37.1946 163.51 37.2146 163.03 37.2413C162.563 37.2546 162.143 37.2746 161.77 37.3013V34.9413C162.077 34.9146 162.423 34.888 162.81 34.8613C163.197 34.8346 163.59 34.8213 163.99 34.8213C164.403 34.808 164.79 34.8013 165.15 34.8013C166.27 34.8013 167.197 34.948 167.93 35.2413C168.677 35.5346 169.237 35.9946 169.61 36.6213C169.997 37.248 170.19 38.068 170.19 39.0813V45.8213H167.99ZM164.49 46.1013C163.703 46.1013 163.01 45.9613 162.41 45.6813C161.823 45.4013 161.363 45.0013 161.03 44.4813C160.71 43.9613 160.55 43.3346 160.55 42.6013C160.55 41.8013 160.743 41.148 161.13 40.6413C161.53 40.1346 162.083 39.7546 162.79 39.5013C163.51 39.248 164.35 39.1213 165.31 39.1213H167.83V40.7813H165.27C164.63 40.7813 164.137 40.9413 163.79 41.2613C163.457 41.568 163.29 41.968 163.29 42.4613C163.29 42.9546 163.457 43.3546 163.79 43.6613C164.137 43.968 164.63 44.1213 165.27 44.1213C165.657 44.1213 166.01 44.0546 166.33 43.9213C166.663 43.7746 166.937 43.5346 167.15 43.2013C167.377 42.8546 167.503 42.388 167.53 41.8013L168.21 42.5813C168.143 43.3413 167.957 43.9813 167.65 44.5013C167.357 45.0213 166.943 45.4213 166.41 45.7013C165.89 45.968 165.25 46.1013 164.49 46.1013ZM172.711 50.1013V47.7213H174.751C175.138 47.7213 175.458 47.668 175.711 47.5613C175.978 47.468 176.198 47.308 176.371 47.0813C176.545 46.868 176.678 46.568 176.771 46.1813L179.691 34.9613H182.351L179.131 46.7813C178.918 47.5946 178.618 48.2413 178.231 48.7213C177.845 49.2146 177.345 49.568 176.731 49.7813C176.131 49.9946 175.385 50.1013 174.491 50.1013H172.711ZM176.091 45.5813V43.3813H178.411V45.5813H176.091ZM175.151 45.5813L171.631 34.9613H174.431L177.771 45.5813H175.151Z" fill="white"/>
<defs>
<linearGradient id="paint0_linear_3024_996" x1="34.3955" y1="15.018" x2="10.9062" y2="38.5072" gradientUnits="userSpaceOnUse">
<stop stop-color="#00A0FF"/>
<stop offset="0.0066" stop-color="#00A2FF"/>
<stop offset="0.2601" stop-color="#00BEFF"/>
<stop offset="0.5122" stop-color="#00D2FF"/>
<stop offset="0.7604" stop-color="#00DFFF"/>
<stop offset="1" stop-color="#00E3FF"/>
</linearGradient>
<linearGradient id="paint1_linear_3024_996" x1="51.239" y1="30.8222" x2="17.3721" y2="30.8222" gradientUnits="userSpaceOnUse">
<stop stop-color="#FFE000"/>
<stop offset="0.4087" stop-color="#FFBD00"/>
<stop offset="0.7754" stop-color="#FFA600"/>
<stop offset="1" stop-color="#FF9C00"/>
</linearGradient>
<linearGradient id="paint2_linear_3024_996" x1="38.6322" y1="34.0336" x2="6.77889" y2="65.8869" gradientUnits="userSpaceOnUse">
<stop stop-color="#FF3743"/>
<stop offset="1" stop-color="#E30864"/>
</linearGradient>
<linearGradient id="paint3_linear_3024_996" x1="14.0971" y1="3.07379" x2="28.321" y2="17.2977" gradientUnits="userSpaceOnUse">
<stop stop-color="#00A06F"/>
<stop offset="0.0685" stop-color="#00A86E"/>
<stop offset="0.4762" stop-color="#00CF6E"/>
<stop offset="0.8009" stop-color="#00E76D"/>
<stop offset="1" stop-color="#00EF6D"/>
</linearGradient>
<clipPath id="clip0_3024_996">
<rect width="36" height="36" fill="white" transform="translate(16 12.8213)"/>
</clipPath>
</defs>
</svg>
