<svg width="20" height="21" viewBox="0 0 20 21" fill="none" xmlns="http://www.w3.org/2000/svg">
<path d="M5.80012 0.321289H14.2001C17.4001 0.321289 20.0001 2.92129 20.0001 6.12129V14.5213C20.0001 16.0595 19.3891 17.5348 18.3013 18.6225C17.2136 19.7102 15.7384 20.3213 14.2001 20.3213H5.80012C2.60012 20.3213 0.00012207 17.7213 0.00012207 14.5213V6.12129C0.00012207 4.58303 0.611192 3.10778 1.6989 2.02007C2.78661 0.932359 4.26187 0.321289 5.80012 0.321289ZM5.60012 2.32129C4.64534 2.32129 3.72967 2.70057 3.05454 3.3757C2.37941 4.05084 2.00012 4.96651 2.00012 5.92129V14.7213C2.00012 16.7113 3.61012 18.3213 5.60012 18.3213H14.4001C15.3549 18.3213 16.2706 17.942 16.9457 17.2669C17.6208 16.5917 18.0001 15.6761 18.0001 14.7213V5.92129C18.0001 3.93129 16.3901 2.32129 14.4001 2.32129H5.60012ZM15.2501 3.82129C15.5816 3.82129 15.8996 3.95299 16.134 4.18741C16.3684 4.42183 16.5001 4.73977 16.5001 5.07129C16.5001 5.40281 16.3684 5.72075 16.134 5.95517C15.8996 6.18959 15.5816 6.32129 15.2501 6.32129C14.9186 6.32129 14.6007 6.18959 14.3662 5.95517C14.1318 5.72075 14.0001 5.40281 14.0001 5.07129C14.0001 4.73977 14.1318 4.42183 14.3662 4.18741C14.6007 3.95299 14.9186 3.82129 15.2501 3.82129ZM10.0001 5.32129C11.3262 5.32129 12.598 5.84807 13.5357 6.78576C14.4733 7.72344 15.0001 8.99521 15.0001 10.3213C15.0001 11.6474 14.4733 12.9191 13.5357 13.8568C12.598 14.7945 11.3262 15.3213 10.0001 15.3213C8.67404 15.3213 7.40227 14.7945 6.46459 13.8568C5.52691 12.9191 5.00012 11.6474 5.00012 10.3213C5.00012 8.99521 5.52691 7.72344 6.46459 6.78576C7.40227 5.84807 8.67404 5.32129 10.0001 5.32129ZM10.0001 7.32129C9.20447 7.32129 8.44141 7.63736 7.8788 8.19997C7.31619 8.76258 7.00012 9.52564 7.00012 10.3213C7.00012 11.1169 7.31619 11.88 7.8788 12.4426C8.44141 13.0052 9.20447 13.3213 10.0001 13.3213C10.7958 13.3213 11.5588 13.0052 12.1214 12.4426C12.6841 11.88 13.0001 11.1169 13.0001 10.3213C13.0001 9.52564 12.6841 8.76258 12.1214 8.19997C11.5588 7.63736 10.7958 7.32129 10.0001 7.32129Z" fill="#082544"/>
</svg>
