<svg width="18" height="19" viewBox="0 0 18 19" fill="none" xmlns="http://www.w3.org/2000/svg">
<path d="M16.0002 0.320312C16.5307 0.320313 17.0394 0.531026 17.4145 0.906099C17.7895 1.28117 18.0002 1.78988 18.0002 2.32031V16.3203C18.0002 16.8507 17.7895 17.3595 17.4145 17.7345C17.0394 18.1096 16.5307 18.3203 16.0002 18.3203H2.00024C1.46981 18.3203 0.961103 18.1096 0.58603 17.7345C0.210958 17.3595 0.000244141 16.8507 0.000244141 16.3203V2.32031C0.000244141 1.78988 0.210958 1.28117 0.58603 0.906099C0.961103 0.531026 1.46981 0.320313 2.00024 0.320312H16.0002ZM15.5002 15.8203V10.5203C15.5002 9.65571 15.1568 8.82651 14.5454 8.21514C13.934 7.60378 13.1048 7.26031 12.2402 7.26031C11.3902 7.26031 10.4002 7.78031 9.92024 8.56031V7.45031H7.13024V15.8203H9.92024V10.8903C9.92024 10.1203 10.5402 9.49031 11.3102 9.49031C11.6815 9.49031 12.0376 9.63781 12.3002 9.90036C12.5627 10.1629 12.7102 10.519 12.7102 10.8903V15.8203H15.5002ZM3.88024 5.88031C4.32581 5.88031 4.75312 5.70331 5.06818 5.38825C5.38324 5.07319 5.56024 4.64588 5.56024 4.20031C5.56024 3.27031 4.81024 2.51031 3.88024 2.51031C3.43203 2.51031 3.00217 2.68837 2.68523 3.0053C2.3683 3.32224 2.19024 3.7521 2.19024 4.20031C2.19024 5.13031 2.95024 5.88031 3.88024 5.88031ZM5.27024 15.8203V7.45031H2.50024V15.8203H5.27024Z" fill="#082544"/>
</svg>
