<svg width="81" height="81" viewBox="0 0 81 81" fill="none" xmlns="http://www.w3.org/2000/svg">
<rect x="0.5" y="0.821533" width="80" height="80" rx="40" fill="#01BA77"/>
<g clip-path="url(#clip0_3024_649)">
<path d="M57.0007 23.8188C57.0007 21.4926 55.1084 19.6001 52.7825 19.6001H37.316C34.9889 19.6001 33.0978 21.4983 33.0978 23.8062V25.3188H57.0007V23.8188Z" fill="white"/>
<path d="M30.2858 29.0727C30.2858 26.999 28.6059 25.3173 26.5325 25.3154C26.2746 25.3151 26.0649 25.5234 26.0633 25.7813L26.0018 35.8497C22.702 38.277 23.2071 41.967 23.1587 42.1939H17.9129C17.1364 42.1939 16.5068 42.8235 16.5068 43.6002C16.547 58.3848 16.4052 57.8132 16.637 58.3098C16.8724 58.8143 17.3654 59.1288 17.9161 59.1288L23.3938 59.1185C23.9613 60.7794 25.5451 62.0428 27.5033 62.0428L31.7388 62.03C30.8286 60.8446 30.2858 59.3631 30.2858 57.7564C30.2858 56.3633 30.2858 31.2603 30.2858 29.0727Z" fill="white"/>
<path d="M63.0939 39.3813H59.8132V42.1938H63.0939C63.8693 42.1938 64.5 41.563 64.5 40.7876C64.5 40.0122 63.8693 39.3813 63.0939 39.3813Z" fill="white"/>
<path d="M59.7194 45.0063H56.4386C55.6633 45.0063 55.0326 45.6372 55.0326 46.4126C55.0326 47.188 55.6633 47.8188 56.4386 47.8188H59.7194C60.4947 47.8188 61.1255 47.188 61.1255 46.4126C61.1255 45.6372 60.4947 45.0063 59.7194 45.0063Z" fill="white"/>
<path d="M58.3133 50.6313H56.9073C56.132 50.6313 55.5012 51.2622 55.5012 52.0376C55.5012 52.813 56.132 53.4438 56.9073 53.4438H58.3133C59.0887 53.4438 59.7194 52.813 59.7194 52.0376C59.7194 51.2622 59.0887 50.6313 58.3133 50.6313Z" fill="white"/>
<path d="M53.6946 56.2563H33.0978V57.7563C33.0978 60.0826 34.99 61.9751 37.316 61.9751H52.7826C53.6972 61.9751 54.544 61.6815 55.2359 61.1849C53.6411 60.0487 53.0516 58.0221 53.6946 56.2563Z" fill="white"/>
<path d="M53.5522 49.4847C50.7871 46.8843 52.6085 42.1938 56.4386 42.1938H57.0007V28.1313H33.0978V53.4438H52.9307C52.4687 52.1416 52.6651 50.6479 53.5522 49.4847ZM40.8289 33.8284C41.6054 33.8284 42.2349 34.4581 42.2349 35.2347C42.2349 36.0113 41.6054 36.6409 40.8289 36.6409C40.0523 36.6409 39.4228 36.0113 39.4228 35.2347C39.4229 34.4581 40.0523 33.8284 40.8289 33.8284ZM50.5631 41.3537C48.5241 46.2479 41.5716 46.2513 39.531 41.3537C39.2323 40.6368 39.5713 39.8134 40.2881 39.5147C41.0049 39.2159 41.8281 39.5549 42.1268 40.2719C43.2062 42.8629 46.8871 42.8649 47.9674 40.2719C48.2661 39.555 49.0893 39.2161 49.8061 39.5147C50.5228 39.8134 50.8618 40.6368 50.5631 41.3537ZM49.2699 36.5642C48.4934 36.5642 47.8639 35.9345 47.8639 35.1579C47.8639 34.3813 48.4934 33.7517 49.2699 33.7517C50.0465 33.7517 50.676 34.3813 50.676 35.1579C50.6759 35.9345 50.0465 36.5642 49.2699 36.5642Z" fill="white"/>
<path d="M58.2665 56.2563H57.7041C56.9029 56.2563 56.2511 56.9082 56.2511 57.7095C56.2511 58.5108 56.9029 59.1626 57.7041 59.1626H58.2665C59.0677 59.1626 59.7194 58.5108 59.7194 57.7095C59.7194 56.9082 59.0677 56.2563 58.2665 56.2563Z" fill="white"/>
</g>
<defs>
<clipPath id="clip0_3024_649">
<rect width="48" height="48" fill="white" transform="translate(16.5 16.8215)"/>
</clipPath>
</defs>
</svg>
