<svg width="25" height="24" viewBox="0 0 25 24" fill="none" xmlns="http://www.w3.org/2000/svg">
<path fill-rule="evenodd" clip-rule="evenodd" d="M12.3334 10C13.9903 10 15.3334 8.65685 15.3334 7C15.3334 5.34315 13.9903 4 12.3334 4C10.6765 4 9.33337 5.34315 9.33337 7C9.33337 8.65685 10.6765 10 12.3334 10ZM12.3334 12C15.0948 12 17.3334 9.76142 17.3334 7C17.3334 4.23858 15.0948 2 12.3334 2C9.57195 2 7.33337 4.23858 7.33337 7C7.33337 9.76142 9.57195 12 12.3334 12Z" fill="black"/>
<path fill-rule="evenodd" clip-rule="evenodd" d="M9.33337 16C7.12423 16 5.33337 17.7909 5.33337 20V21C5.33337 21.5523 4.88565 22 4.33337 22C3.78109 22 3.33337 21.5523 3.33337 21V20C3.33337 16.6863 6.01966 14 9.33337 14H15.3334C18.6471 14 21.3334 16.6863 21.3334 20V21C21.3334 21.5523 20.8857 22 20.3334 22C19.7811 22 19.3334 21.5523 19.3334 21V20C19.3334 17.7909 17.5425 16 15.3334 16H9.33337Z" fill="black"/>
</svg>
